<svg width="162" height="49" viewBox="0 0 162 49" fill="none" xmlns="http://www.w3.org/2000/svg">
<path d="M156.236 48.5H5.6748C2.5464 48.5 0 45.9464 0 42.8204V6.1712C0 3.044 2.5464 0.5 5.6748 0.5H156.236C159.364 0.5 162 3.044 162 6.1712V42.8204C162 45.9464 159.364 48.5 156.236 48.5Z" fill="#212121"/>
<path d="M36.1549 24.2395C36.1201 20.3719 39.3217 18.4903 39.4681 18.4027C37.6549 15.7591 34.8445 15.3979 33.8569 15.3691C31.4965 15.1207 29.2069 16.7815 28.0045 16.7815C26.7781 16.7815 24.9265 15.3931 22.9309 15.4339C20.3629 15.4735 17.9605 16.9603 16.6429 19.2691C13.9237 23.9767 15.9517 30.8947 18.5569 34.6999C19.8601 36.5635 21.3829 38.6443 23.3761 38.5711C25.3261 38.4907 26.0545 37.3279 28.4077 37.3279C30.7393 37.3279 31.4233 38.5711 33.4561 38.5243C35.5489 38.4907 36.8665 36.6523 38.1241 34.7719C39.6301 32.6359 40.2349 30.5323 40.2589 30.4243C40.2097 30.4075 36.1945 28.8751 36.1549 24.2395Z" fill="white"/>
<path d="M32.3164 12.8677C33.3652 11.5561 34.0828 9.77174 33.8836 7.96094C32.3656 8.02814 30.4672 9.01094 29.374 10.2937C28.4068 11.4241 27.5428 13.2769 27.766 15.0193C29.4712 15.1465 31.222 14.1589 32.3164 12.8677Z" fill="white"/>
<path d="M64.373 38.3057H61.6475L60.1543 33.6143H54.9658L53.5439 38.3057H50.8906L56.0312 22.3359H59.207L64.373 38.3057ZM57.502 24.4688C57.3448 25.1479 57.0921 26.1516 56.7441 27.4775L55.418 31.6475H59.7061L58.3555 27.4775C58.2127 27.0515 57.9456 26.0479 57.5508 24.4688H57.502Z" fill="white"/>
<path d="M72.8301 26.5547C74.1884 26.5547 75.3223 27.0912 76.2295 28.165C77.1391 29.2402 77.5928 30.654 77.5928 32.4072C77.5927 34.3654 77.0641 35.9135 76.0059 37.0498C75.058 38.0613 73.8806 38.5663 72.4756 38.5664C70.9589 38.5664 69.8687 38.0221 69.2051 36.9326H69.1572V42.998H66.5986V30.582C66.5986 29.3508 66.5663 28.087 66.5039 26.791H68.7539L68.8965 28.6162H68.9443C69.7975 27.2411 71.0926 26.5547 72.8301 26.5547ZM72.0029 28.5898C71.3718 28.5898 70.7985 28.8014 70.2861 29.2178C69.7725 29.6378 69.4365 30.186 69.2793 30.8652C69.2001 31.182 69.1602 31.4415 69.1602 31.6455V33.5654C69.1602 34.4029 69.4172 35.1094 69.9307 35.6865C70.4443 36.2637 71.1118 36.5518 71.9326 36.5518C72.896 36.5516 73.6463 36.18 74.1826 35.4385C74.7202 34.6957 74.9883 33.7158 74.9883 32.499C74.9882 31.3785 74.7367 30.4546 74.2305 29.7275C73.6773 28.9691 72.9341 28.5898 72.0029 28.5898Z" fill="white"/>
<path d="M86.0762 26.5547C87.4334 26.5547 88.5679 27.091 89.4775 28.165C90.3835 29.2402 90.8379 30.6541 90.8379 32.4072C90.8379 34.3656 90.3086 35.9134 89.249 37.0498C88.3022 38.0614 87.1249 38.5664 85.7197 38.5664C84.2032 38.5663 83.1135 38.022 82.4512 36.9326H82.4033V42.998H79.8447V30.582C79.8447 29.3508 79.8124 28.087 79.75 26.791H82L82.1426 28.6162H82.1904C83.0424 27.2411 84.3375 26.5547 86.0762 26.5547ZM85.2451 28.5898C84.6127 28.5898 84.04 28.8014 83.5264 29.2178C83.013 29.6377 82.6786 30.1862 82.5215 30.8652C82.4435 31.182 82.4023 31.4415 82.4023 31.6455V33.5654C82.4024 34.4027 82.659 35.1095 83.1699 35.6865C83.6835 36.2625 84.3516 36.5518 85.1748 36.5518C86.1382 36.5516 86.8885 36.18 87.4248 35.4385C87.9624 34.6957 88.2305 33.7158 88.2305 32.499C88.2304 31.3784 87.977 30.4546 87.4707 29.7275C86.9175 28.9692 86.1775 28.5898 85.2451 28.5898Z" fill="white"/>
<path d="M105.645 33.8268C105.645 35.1852 105.174 36.2904 104.227 37.1436C103.187 38.076 101.738 38.5416 99.877 38.5416C98.1586 38.5416 96.781 38.2104 95.7382 37.5468L96.331 35.4144C97.4542 36.0936 98.6866 36.4344 100.029 36.4344C100.993 36.4344 101.743 36.216 102.282 35.7816C102.818 35.3472 103.086 34.764 103.086 34.0368C103.086 33.3888 102.865 32.8428 102.422 32.4C101.982 31.9572 101.246 31.5456 100.219 31.1652C97.423 30.1224 96.0262 28.5948 96.0262 26.586C96.0262 25.2732 96.5158 24.1968 97.4962 23.3592C98.473 22.5204 99.7762 22.1016 101.406 22.1016C102.859 22.1016 104.066 22.3548 105.03 22.86L104.39 24.9456C103.49 24.456 102.473 24.2112 101.334 24.2112C100.434 24.2112 99.7306 24.4332 99.2266 24.8748C98.8006 25.2696 98.587 25.7508 98.587 26.3208C98.587 26.952 98.8306 27.474 99.3202 27.8844C99.7462 28.2636 100.52 28.674 101.643 29.1168C103.017 29.67 104.027 30.3168 104.676 31.0584C105.323 31.7976 105.645 32.7228 105.645 33.8268Z" fill="white"/>
<path d="M114.103 28.7111H111.283V34.3019C111.283 35.7239 111.779 36.4343 112.775 36.4343C113.233 36.4343 113.612 36.3947 113.912 36.3155L113.983 38.2583C113.479 38.4467 112.815 38.5415 111.993 38.5415C110.983 38.5415 110.193 38.2331 109.623 37.6175C109.055 37.0007 108.77 35.9663 108.77 34.5131V28.7087H107.09V26.7887H108.77V24.6803L111.283 23.9219V26.7887H114.103V28.7111Z" fill="white"/>
<path d="M121.283 26.5547C122.973 26.5547 124.332 27.1153 125.358 28.2373C126.34 29.3257 126.829 30.7312 126.829 32.4531C126.829 34.2229 126.323 35.6762 125.312 36.8125C124.253 37.9823 122.847 38.5654 121.094 38.5654C119.404 38.5654 118.059 38.0054 117.056 36.8848C116.052 35.764 115.551 34.3487 115.551 32.6436C115.551 30.8592 116.067 29.3971 117.103 28.2607C118.136 27.1233 119.53 26.5547 121.283 26.5547ZM121.192 28.4258C120.164 28.4258 119.383 28.8858 118.847 29.8037C118.387 30.5645 118.16 31.4897 118.16 32.584C118.16 33.6459 118.387 34.5571 118.847 35.3154C119.4 36.2344 120.173 36.6924 121.17 36.6924C122.147 36.6923 122.914 36.2246 123.467 35.291C123.938 34.5171 124.176 33.5967 124.176 32.5361C124.176 31.4742 123.949 30.5633 123.489 29.8037C122.953 28.8845 122.186 28.4258 121.192 28.4258Z" fill="white"/>
<path d="M135.145 29.0411C134.892 28.9943 134.622 28.9703 134.339 28.9703C133.439 28.9703 132.743 29.3099 132.253 29.9903C131.827 30.5903 131.614 31.3487 131.614 32.2643V38.3063H129.056L129.08 30.4175C129.08 29.0903 129.048 27.8819 128.984 26.7923H131.213L131.306 28.9955H131.377C131.647 28.2383 132.073 27.6287 132.656 27.1715C133.226 26.7599 133.842 26.5547 134.506 26.5547C134.742 26.5547 134.956 26.5715 135.145 26.6015V29.0411Z" fill="white"/>
<path d="M141.801 26.5312C143.46 26.5313 144.717 27.1467 145.57 28.3779C146.246 29.3559 146.585 30.5656 146.585 32.002C146.585 32.4602 146.555 32.8466 146.491 33.1621H138.816C138.846 34.2997 139.217 35.1705 139.93 35.7705C140.576 36.3069 141.413 36.5752 142.44 36.5752C143.577 36.5752 144.614 36.3939 145.546 36.0303L145.946 37.8066C144.857 38.2817 143.57 38.5176 142.086 38.5176C140.301 38.5175 138.899 37.9923 137.879 36.9424C136.861 35.8924 136.352 34.4825 136.352 32.7139C136.352 30.9775 136.825 29.5311 137.774 28.3779C138.768 27.1467 140.111 26.5312 141.801 26.5312ZM141.61 28.3047C140.774 28.3047 140.093 28.6517 139.573 29.3477C139.147 29.9007 138.894 30.5643 138.816 31.3369H144.146C144.162 30.5792 143.995 29.9249 143.648 29.3721C143.206 28.6606 142.526 28.3048 141.61 28.3047Z" fill="white"/>
<path d="M54.5762 8.71484C55.9502 8.71485 56.9862 9.01373 57.6846 9.61133C58.4668 10.2869 58.8594 11.2533 58.8594 12.5107C58.8593 13.9229 58.4356 14.9862 57.5898 15.7002C56.8063 16.359 55.6923 16.6884 54.25 16.6885C53.5348 16.6885 52.9225 16.6581 52.4102 16.5957V8.87793C53.0786 8.76993 53.7986 8.71484 54.5762 8.71484ZM54.6807 9.70312C54.2847 9.70313 53.9475 9.72996 53.668 9.78516V15.6514C53.8228 15.6754 54.106 15.6865 54.5176 15.6865C55.4799 15.6865 56.2229 15.4189 56.7461 14.8838C57.2692 14.3487 57.5331 13.5685 57.5332 12.5439C57.5332 11.6283 57.2905 10.9261 56.8057 10.4365C56.3209 9.94816 55.613 9.70312 54.6807 9.70312Z" fill="white"/>
<path d="M63.1641 10.8477C63.9944 10.8477 64.6618 11.1222 65.167 11.6729C65.6469 12.208 65.8876 12.8995 65.8877 13.7441C65.8877 14.6141 65.6394 15.3275 65.1426 15.8867C64.6218 16.4613 63.9318 16.748 63.0703 16.748C62.24 16.748 61.5791 16.4729 61.0859 15.9209C60.594 15.3701 60.3477 14.6755 60.3477 13.8379C60.3477 12.9621 60.6008 12.2435 61.1094 11.6855C61.6182 11.1275 62.3025 10.8477 63.1641 10.8477ZM63.1191 11.7656C62.614 11.7657 62.2298 11.9912 61.9658 12.4424C61.7403 12.8155 61.629 13.2702 61.6289 13.8076C61.6289 14.3294 61.7416 14.7773 61.9658 15.1504C62.2382 15.6016 62.6178 15.8271 63.1074 15.8271C63.5874 15.8271 63.9642 15.5982 64.2354 15.1387C64.4681 14.7583 64.585 14.3071 64.585 13.7852C64.585 13.2632 64.4715 12.8156 64.2471 12.4424C63.9831 11.9913 63.6075 11.7656 63.1191 11.7656Z" fill="white"/>
<path d="M75.3171 10.9609L73.5471 16.6177H72.3951L71.6619 14.1613C71.4759 13.5481 71.3247 12.9385 71.2071 12.3337H71.1843C71.0751 12.9553 70.9239 13.5637 70.7295 14.1613L69.9507 16.6177H68.7855L67.1211 10.9609H68.4135L69.0531 13.6501C69.2079 14.2861 69.3351 14.8921 69.4371 15.4657H69.4599C69.5535 14.9929 69.7083 14.3905 69.9267 13.6621L70.7295 10.9621H71.7543L72.5235 13.6045C72.7095 14.2489 72.8607 14.8693 72.9771 15.4669H73.0119C73.0971 14.8849 73.2255 14.2645 73.3959 13.6045L74.0823 10.9621H75.3171V10.9609Z" fill="white"/>
<path d="M81.8373 16.6193H80.5797V13.3793C80.5797 12.3809 80.2005 11.8817 79.4397 11.8817C79.0665 11.8817 78.7653 12.0185 78.5313 12.2933C78.2997 12.5682 78.1821 12.8921 78.1821 13.2629V16.6182H76.9245V12.579C76.9245 12.0821 76.9089 11.5433 76.8789 10.9602H77.9841L78.0429 11.8446H78.0777C78.2241 11.5698 78.4425 11.3429 78.7293 11.1617C79.0701 10.9505 79.4517 10.8438 79.8693 10.8438C80.3973 10.8438 80.8365 11.0141 81.1857 11.3561C81.6201 11.7749 81.8373 12.4002 81.8373 13.2306V16.6193Z" fill="white"/>
<path d="M85.3033 16.6196H84.0469V8.36719H85.3033V16.6196Z" fill="white"/>
<path d="M89.9836 10.8476C90.815 10.8476 91.4812 11.1221 91.9875 11.6728C92.4674 12.2079 92.7081 12.8994 92.7082 13.7441C92.7082 14.6141 92.4599 15.3275 91.9631 15.8867C91.4423 16.4613 90.7511 16.748 89.8908 16.748C89.0593 16.748 88.3984 16.4728 87.9064 15.9208C87.4145 15.37 87.1682 14.6754 87.1682 13.8378C87.1682 12.9621 87.4213 12.2434 87.9299 11.6855C88.4387 11.1275 89.1232 10.8476 89.9836 10.8476ZM89.9396 11.7656C89.4333 11.7656 89.0491 11.9912 88.7863 12.4423C88.5608 12.8154 88.4495 13.2702 88.4494 13.8076C88.4494 14.3293 88.5621 14.7772 88.7863 15.1503C89.0587 15.6015 89.4383 15.8271 89.9279 15.8271C90.4079 15.8271 90.7837 15.5982 91.0549 15.1386C91.2888 14.7583 91.4035 14.307 91.4035 13.7851C91.4035 13.2631 91.291 12.8155 91.0666 12.4423C90.8038 11.9911 90.4268 11.7656 89.9396 11.7656Z" fill="white"/>
<path d="M96.4951 10.8477C97.9732 10.8478 98.7148 11.6277 98.7148 13.1875V15.2705C98.7148 15.8357 98.7419 16.2865 98.7959 16.6201H97.667L97.5732 15.9678H97.5391C97.1527 16.4873 96.6017 16.748 95.8867 16.748C95.3527 16.748 94.9199 16.5762 94.5947 16.2354C94.2998 15.9259 94.1524 15.5409 94.1523 15.084C94.1523 14.3929 94.4402 13.8658 95.0195 13.501C95.5979 13.1362 96.4124 12.9574 97.46 12.9658V12.8604C97.46 12.1153 97.0685 11.7433 96.2852 11.7432C95.7272 11.7432 95.2344 11.8837 94.8096 12.1621L94.5547 11.3359C95.0802 11.0109 95.7297 10.8477 96.4951 10.8477ZM97.4912 13.8018C96.1043 13.7778 95.4104 14.1581 95.4102 14.9414C95.4102 15.2366 95.4894 15.4579 95.6514 15.6055C95.8133 15.753 96.0197 15.8261 96.2656 15.8262C96.5416 15.8262 96.8 15.7385 97.0352 15.5645C97.2713 15.3894 97.4167 15.1676 97.4707 14.8955C97.4839 14.8343 97.4912 14.759 97.4912 14.6738V13.8018Z" fill="white"/>
<path d="M105.895 15.0957C105.895 15.6463 105.909 16.1537 105.939 16.6191H104.823L104.765 15.7109H104.729C104.373 16.402 103.766 16.7479 102.913 16.748C102.232 16.748 101.664 16.4803 101.214 15.9453C100.764 15.4102 100.539 14.7154 100.539 13.8623C100.539 12.9467 100.783 12.2051 101.272 11.6387C101.746 11.1107 102.327 10.8467 103.019 10.8467C103.778 10.8467 104.31 11.1019 104.612 11.6143H104.636V8.36719H105.895V15.0957ZM103.307 11.8242C102.837 11.8242 102.47 12.0106 102.2 12.3838C101.933 12.757 101.797 13.2335 101.797 13.8154C101.797 14.3744 101.926 14.8276 102.184 15.1768C102.456 15.5487 102.823 15.7353 103.282 15.7354C103.695 15.7354 104.026 15.5803 104.276 15.2695C104.519 14.9827 104.638 14.6366 104.638 14.2334V13.291C104.638 13.1278 104.625 12.9953 104.603 12.8945C104.532 12.5922 104.379 12.338 104.147 12.1328C103.914 11.9277 103.632 11.8243 103.307 11.8242Z" fill="white"/>
<path d="M113.974 10.8476C114.803 10.8476 115.472 11.1221 115.975 11.6728C116.455 12.2079 116.696 12.8994 116.696 13.7441C116.696 14.6141 116.448 15.3275 115.951 15.8867C115.43 16.4613 114.741 16.748 113.879 16.748C113.05 16.748 112.389 16.4728 111.894 15.9208C111.402 15.37 111.156 14.6754 111.156 13.8378C111.156 12.9621 111.409 12.2434 111.918 11.6855C112.427 11.1275 113.111 10.8476 113.974 10.8476ZM113.928 11.7656C113.424 11.7656 113.039 11.9912 112.774 12.4423C112.549 12.8154 112.437 13.2702 112.437 13.8076C112.437 14.3293 112.55 14.7772 112.774 15.1503C113.047 15.6015 113.426 15.8271 113.916 15.8271C114.396 15.8271 114.774 15.5982 115.045 15.1386C115.276 14.7582 115.394 14.3071 115.394 13.7851C115.394 13.2631 115.281 12.8155 115.057 12.4423C114.791 11.9913 114.417 11.7656 113.928 11.7656Z" fill="white"/>
<path d="M123.457 16.6193H122.201V13.3793C122.201 12.3809 121.822 11.8817 121.06 11.8817C120.686 11.8817 120.385 12.0185 120.152 12.2933C119.92 12.5682 119.803 12.8921 119.803 13.2629V16.6182H118.544V12.579C118.544 12.0821 118.53 11.5433 118.5 10.9602H119.604L119.663 11.8446H119.698C119.845 11.5698 120.064 11.3429 120.349 11.1617C120.691 10.9505 121.072 10.8438 121.49 10.8438C122.017 10.8438 122.456 11.0141 122.806 11.3561C123.241 11.7749 123.457 12.4002 123.457 13.2306V16.6193Z" fill="white"/>
<path d="M131.922 11.9055H130.537V14.6535C130.537 15.3519 130.783 15.7011 131.27 15.7011C131.496 15.7011 131.683 15.6819 131.831 15.6423L131.863 16.5963C131.615 16.6899 131.288 16.7367 130.886 16.7367C130.389 16.7367 130.003 16.5855 129.723 16.2831C129.443 15.9807 129.303 15.4719 129.303 14.7579V11.9055H128.477V10.9635H129.303V9.92669L130.536 9.55469V10.9623H131.921V11.9055H131.922Z" fill="white"/>
<path d="M138.581 16.6196H137.322V13.4036C137.322 12.3896 136.943 11.882 136.183 11.882C135.6 11.882 135.202 12.176 134.983 12.764C134.946 12.8876 134.924 13.0388 134.924 13.2164V16.6184H133.668V8.36719H134.924V11.7764H134.948C135.344 11.156 135.912 10.8464 136.648 10.8464C137.168 10.8464 137.599 11.0168 137.941 11.3588C138.367 11.7848 138.581 12.4184 138.581 13.256V16.6196Z" fill="white"/>
<path d="M143.094 10.8359C143.907 10.8359 144.526 11.1384 144.943 11.7432C145.28 12.2231 145.447 12.817 145.447 13.5225C145.447 13.7481 145.43 13.938 145.4 14.0928H141.629C141.646 14.6519 141.826 15.0779 142.175 15.373C142.494 15.637 142.905 15.7695 143.409 15.7695C143.967 15.7695 144.476 15.6807 144.935 15.502L145.132 16.375C144.595 16.6078 143.964 16.7246 143.233 16.7246C142.357 16.7246 141.667 16.4662 141.168 15.9502C140.666 15.4342 140.418 14.7418 140.418 13.873C140.418 13.0199 140.649 12.3095 141.116 11.7432C141.603 11.1384 142.262 10.836 143.094 10.8359ZM143.003 11.707C142.593 11.707 142.258 11.8777 142.002 12.2197C141.793 12.492 141.67 12.817 141.629 13.1973H144.247C144.257 12.8242 144.174 12.5026 144.004 12.2314C143.786 11.8823 143.453 11.7071 143.003 11.707Z" fill="white"/>
</svg>
