<svg width="162" height="49" viewBox="0 0 162 49" fill="none" xmlns="http://www.w3.org/2000/svg">
<path d="M156 48.5H6C2.64 48.5 0 45.86 0 42.5V6.5C0 3.14 2.64 0.5 6 0.5H156C159.36 0.5 162 3.14 162 6.5V42.5C162 45.74 159.36 48.5 156 48.5Z" fill="#212121"/>
<path d="M56.9986 12.1419H53.2786V13.2219H55.9186C55.7986 13.7019 55.6786 14.1819 55.3186 14.4219C54.8386 14.9019 54.1186 15.1419 53.3986 15.1419C52.6786 15.1419 52.0786 14.9019 51.4786 14.4219C50.9986 13.9419 50.6386 13.2219 50.6386 12.3819C50.6386 11.5419 50.8786 10.9419 51.4786 10.3419C51.9586 9.86187 52.6786 9.62188 53.3986 9.62188C54.2386 9.62188 54.8386 9.86187 55.3186 10.4619L55.4386 10.5819L56.2786 9.74188L56.1586 9.62188C55.9186 9.26188 55.4386 9.02188 54.9586 8.78188C54.4786 8.54188 53.9986 8.42188 53.3986 8.42188C52.3186 8.42188 51.3586 8.78188 50.6386 9.50188C49.9186 10.2219 49.5586 11.1819 49.5586 12.2619C49.5586 13.3419 49.9186 14.3019 50.6386 15.0219C51.3586 15.7419 52.3186 16.1019 53.3986 16.1019C54.4786 16.1019 55.4386 15.7419 56.1586 15.0219C56.7586 14.4219 57.1186 13.5819 57.1186 12.5019C56.9986 12.6219 56.9986 12.3819 56.9986 12.1419Z" fill="white"/>
<path d="M58.0781 16.2213H62.5181V15.1413H59.2781V13.1013H62.2781V11.9012H59.2781V9.86125H62.5181V8.78125H58.0781V16.2213Z" fill="white"/>
<path d="M63.2383 9.86125H65.2783V16.2213H66.4783V9.86125H68.5183V8.78125H63.2383V9.86125Z" fill="white"/>
<rect x="71.7578" y="8.78125" width="1.2" height="7.44" fill="white"/>
<path d="M73.918 9.86125H75.958V16.2213H77.038V9.86125H79.078V8.78125H73.918V9.86125Z" fill="white"/>
<path d="M85.6797 8.66016C86.7596 8.66016 87.7195 9.02036 88.4395 9.74023C89.1594 10.4602 89.5195 11.4201 89.5195 12.5C89.5195 13.58 89.1594 14.5398 88.4395 15.2598C87.7195 15.9798 86.7597 16.3398 85.6797 16.3398C84.5998 16.3398 83.6399 15.9797 82.9199 15.2598C82.2 14.5398 81.8398 13.5799 81.8398 12.5C81.8399 11.4201 82.2 10.4602 82.9199 9.74023C83.6399 9.02029 84.5998 8.66019 85.6797 8.66016ZM85.6787 9.73828C84.8389 9.73835 84.2387 9.9781 83.7588 10.458C83.2788 11.0579 83.0391 11.6582 83.0391 12.498C83.0391 13.3379 83.279 14.0581 83.7588 14.5381C84.3587 15.018 84.9589 15.2587 85.6787 15.2588C86.3987 15.2588 86.9987 15.018 87.5986 14.5381C88.0786 13.9381 88.3193 13.338 88.3193 12.498C88.3193 11.6582 88.0786 10.938 87.5986 10.458C86.9988 9.97823 86.3985 9.73828 85.6787 9.73828Z" fill="white"/>
<path d="M95.1577 8.78125V13.1013L95.2777 14.1813L91.9177 8.78125H90.5977V16.2213H91.6777V11.6613V10.5812L95.1577 16.2213H96.3577V8.78125H95.1577Z" fill="white"/>
<path d="M81.7188 26.6602C84.5987 26.6602 86.8789 28.7004 86.8789 31.8203C86.8789 34.8202 84.5986 36.9804 81.7188 36.9805C78.8388 36.9805 76.5586 34.7003 76.5586 31.8203C76.5586 28.8203 78.8387 26.6602 81.7188 26.6602ZM81.7197 28.582C80.1598 28.5821 78.8398 29.9022 78.8398 31.7021C78.8399 33.5021 80.1598 34.8222 81.7197 34.8223C83.2797 34.8223 84.5996 33.5021 84.5996 31.7021C84.5996 29.7821 83.2797 28.582 81.7197 28.582Z" fill="white"/>
<path d="M70.5586 26.6602C73.4385 26.6602 75.7188 28.7004 75.7188 31.8203C75.7187 34.8202 73.4385 36.9804 70.5586 36.9805C67.6786 36.9805 65.3985 34.7003 65.3984 31.8203C65.3984 28.8203 67.6786 26.6602 70.5586 26.6602ZM70.5596 28.582C68.9996 28.5821 67.6797 29.9022 67.6797 31.7021C67.6797 33.5021 68.9996 34.8222 70.5596 34.8223C72.1196 34.8223 73.4394 33.5021 73.4395 31.7021C73.4395 29.7821 72.1196 28.582 70.5596 28.582Z" fill="white"/>
<path d="M57.2403 28.2195V30.3795H62.4003C62.2803 31.5795 61.8003 32.5395 61.2003 33.1395C60.4803 33.8595 59.2803 34.6995 57.2403 34.6995C54.0003 34.6995 51.6003 32.1795 51.6003 28.9395C51.6003 25.6995 54.1203 23.1795 57.2403 23.1795C58.9203 23.1795 60.2403 23.8995 61.2003 24.7395L62.7603 23.1795C61.4403 21.9795 59.7603 21.0195 57.3603 21.0195C53.0403 21.0195 49.3203 24.6195 49.3203 28.9395C49.3203 33.2595 53.0403 36.8595 57.3603 36.8595C59.7603 36.8595 61.4403 36.1395 62.8803 34.5795C64.3203 33.1395 64.8003 31.0995 64.8003 29.5395C64.8003 29.0595 64.8003 28.5795 64.6803 28.2195H57.2403Z" fill="white"/>
<path d="M107.28 26.5391C109.92 26.5391 111.121 28.5793 111.601 29.7793L111.841 30.3789L105 33.2588C105.6 34.3388 106.321 34.8193 107.521 34.8193C108.72 34.8193 109.44 34.2189 110.04 33.3789L111.721 34.5791C111.241 35.4191 109.8 36.8594 107.521 36.8594C104.641 36.8594 102.481 34.5792 102.48 31.6992C102.48 28.5793 104.64 26.5392 107.28 26.5391ZM107.4 28.5781C106.2 28.5781 104.641 29.5382 104.761 31.5781L109.32 29.6582C109.08 29.0582 108.24 28.5781 107.4 28.5781Z" fill="white"/>
<rect x="99.1211" y="21.5" width="2.28" height="15" fill="white"/>
<path d="M92.7598 26.5391C93.9597 26.5391 94.9194 27.1393 95.3994 27.7393H95.5195V26.8994H97.6797V36.0195C97.6795 39.7392 95.5198 41.2988 92.8799 41.2988C90.3599 41.2988 88.9203 39.6188 88.3203 38.2988L90.2402 37.459C90.4802 38.299 91.4398 39.2588 92.7598 39.2588C94.4398 39.2588 95.5195 38.1788 95.5195 36.2588V35.5391H95.3994C94.9194 36.139 93.9597 36.7393 92.7598 36.7393C90.1198 36.7392 87.8399 34.5791 87.8398 31.6992C87.8398 28.8192 90.2398 26.5391 92.7598 26.5391ZM92.8799 28.5781C91.3199 28.5782 90 29.8983 90 31.6982C90 33.4982 91.32 34.8183 92.8799 34.8184C94.4399 34.8184 95.6396 33.4982 95.6396 31.6982C95.6396 29.8982 94.4399 28.5781 92.8799 28.5781Z" fill="white"/>
<path d="M122.162 21.5C124.682 21.5002 127.082 23.3001 127.082 26.1797C127.082 29.0595 124.682 30.8602 122.162 30.8604H119.042V36.5H116.762V21.5H122.162ZM119.043 23.5391V28.6992H122.283C123.843 28.6991 124.803 27.3794 124.923 26.0596C124.923 24.9796 123.963 23.5392 122.283 23.5391H119.043Z" fill="white"/>
<path d="M136.08 26.5391C138.6 26.5391 140.64 28.0993 140.88 30.7393V36.499H138.72V35.2988H138.6C138 36.0188 137.28 36.7393 135.72 36.7393C133.8 36.7391 132 35.4188 132 33.3789C132 31.219 134.16 30.0195 136.32 30.0195C137.28 30.0196 138.239 30.3792 138.6 30.6191V30.499C138.48 29.2992 137.4 28.5792 136.2 28.5791C135.36 28.5791 134.64 28.8192 134.16 29.6592L132.12 28.8193C132.72 27.2593 134.4 26.5391 136.08 26.5391ZM136.439 31.9375C135.359 31.9375 134.039 32.298 134.039 33.498C134.039 34.4576 135.119 34.8173 135.839 34.8174C137.039 34.8174 138.239 33.8578 138.479 32.418C137.88 32.178 137.399 31.9376 136.439 31.9375Z" fill="white"/>
<path d="M148.442 26.8984L145.922 33.3784H145.802L143.162 26.8984H140.762L144.722 36.0184L142.442 41.0584H144.842L150.962 26.8984H148.442Z" fill="white"/>
<rect x="128.281" y="21.5" width="2.28" height="15" fill="white"/>
<path d="M12.4789 9.5C12.1189 9.86 11.8789 10.46 11.8789 11.18V37.7C11.8789 38.42 12.1189 39.02 12.4789 39.38L12.5989 39.5L27.4789 24.62V24.5V24.38L12.4789 9.5Z" fill="url(#paint0_linear_0_692)"/>
<path d="M32.4005 29.6609L27.4805 24.7409V24.5009V24.3809L32.4005 19.4609L32.5205 19.5809L38.4005 22.9409C40.0805 23.9009 40.0805 25.4609 38.4005 26.4209L32.4005 29.6609Z" fill="url(#paint1_linear_0_692)"/>
<path d="M32.5205 29.54L27.4805 24.5L12.4805 39.5C13.0805 40.1 13.9205 40.1 15.0005 39.62L32.5205 29.54Z" fill="url(#paint2_linear_0_692)"/>
<path d="M32.5205 19.4599L15.0005 9.49994C13.9205 8.89994 13.0805 9.01994 12.4805 9.61994L27.4805 24.4999L32.5205 19.4599Z" fill="url(#paint3_linear_0_692)"/>
<defs>
<linearGradient id="paint0_linear_0_692" x1="20.9224" y1="-8.41267" x2="-2.91881" y2="-1.96599" gradientUnits="userSpaceOnUse">
<stop stop-color="#00A0FF"/>
<stop offset="0.00657445" stop-color="#00A1FF"/>
<stop offset="0.2601" stop-color="#00BEFF"/>
<stop offset="0.5122" stop-color="#00D2FF"/>
<stop offset="0.7604" stop-color="#00DFFF"/>
<stop offset="1" stop-color="#00E3FF"/>
</linearGradient>
<linearGradient id="paint1_linear_0_692" x1="40.6017" y1="12.3446" x2="11.5655" y2="12.3446" gradientUnits="userSpaceOnUse">
<stop stop-color="#FFE000"/>
<stop offset="0.4087" stop-color="#FFBD00"/>
<stop offset="0.7754" stop-color="#FFA500"/>
<stop offset="1" stop-color="#FF9C00"/>
</linearGradient>
<linearGradient id="paint2_linear_0_692" x1="12.0998" y1="16.7168" x2="-7.0587" y2="48.882" gradientUnits="userSpaceOnUse">
<stop stop-color="#FF3A44"/>
<stop offset="1" stop-color="#C31162"/>
</linearGradient>
<linearGradient id="paint3_linear_0_692" x1="0.819709" y1="5.39545" x2="9.3073" y2="19.7783" gradientUnits="userSpaceOnUse">
<stop stop-color="#32A071"/>
<stop offset="0.0685" stop-color="#2DA771"/>
<stop offset="0.4762" stop-color="#15CF74"/>
<stop offset="0.8009" stop-color="#06E775"/>
<stop offset="1" stop-color="#00F076"/>
</linearGradient>
</defs>
</svg>
